# xmcd
#
# Track frame offsets:
#	150
#	18766
#	38875
#	55385
#	69907
#	85131
#	100012
#	116523
#	132105
#	148334
#	161898
#	178661
#	189222
#	207838
#	224348
#	238870
#	254094
#	268975
#	285486
#	301068
#	317297
#	330861
#	347624
#
# Disc length: 4775 seconds
#
# Revision: 1
# Processed by: cddbd v1.5.2PL0 Copyright (c) Steve Scherf et al.
# Submitted via: audiograbber 1.83.01
#
DISCID=4a12a517
DTITLE=Intocable - Homenaje a Intocable  86
DYEAR=2018
DGENRE=Regional
TTITLE0=Aire
TTITLE1=Fuerte no soy
TTITLE2=Contra viento y marea
TTITLE3=Y todo para qué
TTITLE4=El amigo que se fue
TTITLE5=Eres mi droga
TTITLE6=Enseñame a olvidarte
TTITLE7=Amor maldito
TTITLE8=Un desengaño
TTITLE9=Coqueta
TTITLE10=Es tan bello
TTITLE11=Yo no tengo la culpa
TTITLE12=Aire  (Multiplex)
TTITLE13=Contra viento y marea  (Multiplex)
TTITLE14=Y todo para que  (Multiplex)
TTITLE15=El amigo que se fue  (Multiplex)
TTITLE16=Eres mi droga  (Multiplex)
TTITLE17=Enseñame a olvidarte  (Multiplex)
TTITLE18=Amor maldito  (Multiplex)
TTITLE19=Un desengaño  (Multiplex)
TTITLE20=Coqueta  (Multiplex)
TTITLE21=Es tan bello  (Multiplex)
TTITLE22=Yo no tengo la culpa  (Multiplex)
EXTD=Karaoke
EXTT0=
EXTT1=
EXTT2=
EXTT3=
EXTT4=
EXTT5=
EXTT6=
EXTT7=
EXTT8=
EXTT9=
EXTT10=
EXTT11=
EXTT12=
EXTT13=
EXTT14=
EXTT15=
EXTT16=
EXTT17=
EXTT18=
EXTT19=
EXTT20=
EXTT21=
EXTT22=
PLAYORDER=
